<?xml version="1.0" standalone="no"?><!DOCTYPE svg PUBLIC "-//W3C//DTD SVG 1.1//EN" "http://www.w3.org/Graphics/SVG/1.1/DTD/svg11.dtd"><svg t="1660439914566" class="icon" viewBox="0 0 1024 1024" version="1.1" xmlns="http://www.w3.org/2000/svg" p-id="2423" xmlns:xlink="http://www.w3.org/1999/xlink" width="200" height="200"><defs><style type="text/css"></style></defs><path d="M944 200h-64a8 8 0 0 1 0-16h64a8 8 0 0 1 0 16zM864 104h-64a8 8 0 0 1 0-16h64a8 8 0 0 1 0 16z" fill="#263238" p-id="2424"></path><path d="M832 136a8 8 0 0 1-8-8V64a8 8 0 0 1 16 0v64a8 8 0 0 1-8 8zM912 232a8 8 0 0 1-8-8v-64a8 8 0 0 1 16 0v64a8 8 0 0 1-8 8zM96 936H80a8 8 0 0 1 0-16h16a8 8 0 0 1 0 16zM304 936H128a8 8 0 0 1 0-16h176a8 8 0 0 1 0 16zM880 936h-16a8 8 0 0 1 0-16h16a8 8 0 0 1 0 16zM832 936H656a8 8 0 0 1 0-16h176a8 8 0 0 1 0 16zM608 1000a8 8 0 0 1-8-8v-144a8 8 0 0 1 16 0v144a8 8 0 0 1-8 8z" fill="#263238" p-id="2425"></path><path d="M295.792 192a80.096 80.096 0 0 0-97.328-78.176c-30.528 6.4-54.992 31.328-61.056 61.92a79.2 79.2 0 0 0 19.424 69.952c11.6 12.576 18.96 28.448 18.96 45.568v4.736h80v-4.72c0-17.2 7.52-33.088 19.136-45.776A78.912 78.912 0 0 0 295.792 192z" fill="#FFD740" p-id="2426"></path><path d="M255.792 304h-80a8 8 0 0 1-8-8v-4.752c0-14.096-5.984-28.336-16.848-40.128-19.168-20.784-26.96-48.832-21.392-76.928 6.688-33.744 33.712-61.152 67.264-68.192a88.48 88.48 0 0 1 74.4 17.664A87.68 87.68 0 0 1 303.776 192c0 21.808-8.16 42.72-22.96 58.896-7.776 8.48-17.04 22.368-17.04 40.368v4.736a7.968 7.968 0 0 1-7.984 8z m-72.08-16h64.16c0.864-16.976 8.304-33.872 21.152-47.92A70.976 70.976 0 0 0 287.792 192a71.744 71.744 0 0 0-26.64-55.92c-16.944-13.744-39.152-19.008-61.04-14.432-27.344 5.728-49.392 28.08-54.864 55.632-4.56 23.04 1.792 46 17.456 62.976 12.8 13.872 20.176 30.72 21.008 47.744z" fill="#263238" p-id="2427"></path><path d="M215.792 384c-26.464 0-48-21.536-48-48v-40a8 8 0 0 1 8-8h80a8 8 0 0 1 8 8V336c0 26.464-21.52 48-48 48z m-32-80v32c0 17.648 14.352 32 32 32s32-14.352 32-32v-32h-64z" fill="#263238" p-id="2428"></path><path d="M255.792 344h-80a8 8 0 0 1 0-16h80a8 8 0 0 1 0 16zM215.792 72a8 8 0 0 1-8-8V32a8 8 0 0 1 16 0v32a8 8 0 0 1-8 8zM135.792 99.312a8.032 8.032 0 0 1-5.664-2.336L107.52 74.336a8 8 0 0 1 11.312-11.312l22.624 22.624a8 8 0 0 1-5.664 13.664zM295.792 99.312a8 8 0 0 1-5.664-13.648l22.624-22.624a8 8 0 0 1 11.312 11.312L301.456 96.96a8 8 0 0 1-5.664 2.352zM215.792 304a8 8 0 0 1-8-8v-80a8 8 0 0 1 16 0v80a8 8 0 0 1-8 8zM352 1000a8 8 0 0 1-8-8l-0.016-239.232-48.992-43.232A328.176 328.176 0 0 1 184 463.584V432c0-10.624 0.768-20.848 1.44-28.576a8 8 0 0 1 15.936 1.376c-0.64 7.408-1.376 17.184-1.376 27.2v31.584a312.112 312.112 0 0 0 105.584 233.952l51.696 45.616a8.016 8.016 0 0 1 2.704 6L360 992a8 8 0 0 1-8 8zM712 856H528a8 8 0 0 1 0-16h184c61.744 0 112-50.24 112-112V624a8 8 0 0 1 8-8h42.288c12.224 0 22.864-6.48 28.448-17.344 5.6-10.88 4.688-23.296-2.416-33.248l-74.832-104.752a7.984 7.984 0 0 1-1.488-4.656V432c0-172.032-139.968-312-312-312a309.744 309.744 0 0 0-181.424 58.512 8 8 0 1 1-9.312-13.008A325.536 325.536 0 0 1 512 104c180.864 0 328 147.136 328 328v21.424l73.344 102.672c10.48 14.688 11.872 33.808 3.616 49.872a47.84 47.84 0 0 1-42.672 26.032H840v96c0 70.576-57.424 128-128 128z" fill="#263238" p-id="2429"></path><path d="M514.352 400m-192 0a192 192 0 1 0 384 0 192 192 0 1 0-384 0Z" fill="#40C4FF" p-id="2430"></path><path d="M514.336 600c-110.288 0-200-89.712-200-200s89.712-200 200-200 200 89.712 200 200-89.712 200-200 200z m0-384c-101.456 0-184 82.544-184 184s82.544 184 184 184 184-82.544 184-184-82.544-184-184-184z" fill="#263238" p-id="2431"></path><path d="M514.336 312c-55.632 0-109.088-12.032-146.704-33.008a8 8 0 1 1 7.792-13.968c35.312 19.68 85.936 30.992 138.928 30.992 52.976 0 103.616-11.296 138.944-30.992a8 8 0 0 1 7.792 13.968c-37.648 20.976-91.136 33.008-146.752 33.008zM657.168 536a8.096 8.096 0 0 1-3.888-1.008c-35.344-19.68-85.984-30.992-138.944-30.992-52.976 0-103.6 11.296-138.928 30.992a8 8 0 0 1-7.792-13.968c37.632-20.992 91.088-33.008 146.704-33.008s109.072 12.032 146.72 33.008a8 8 0 0 1-3.872 14.976z" fill="#263238" p-id="2432"></path><path d="M514.336 600c-69.952 0-126.864-89.712-126.864-200s56.912-200 126.864-200 126.864 89.712 126.864 200-56.896 200-126.864 200z m0-384c-61.12 0-110.864 82.544-110.864 184s49.728 184 110.864 184 110.864-82.544 110.864-184-49.728-184-110.864-184z" fill="#263238" p-id="2433"></path><path d="M514.336 600a8 8 0 0 1-8-8V208a8 8 0 0 1 16 0v384a8 8 0 0 1-8 8z" fill="#263238" p-id="2434"></path><path d="M706.336 408h-384a8 8 0 0 1 0-16h384a8 8 0 0 1 0 16z" fill="#263238" p-id="2435"></path></svg>